<svg id="svg" xmlns="http://www.w3.org/2000/svg" xmlns:xlink="http://www.w3.org/1999/xlink" width="400" height="339.4833948339483" viewBox="0, 0, 400,339.4833948339483"><g id="svgg"><path id="path0" d="M184.871 32.597 C 182.435 32.954,178.118 33.578,175.277 33.983 C 164.990 35.453,149.108 40.273,142.638 43.890 C 140.801 44.916,139.034 45.756,138.712 45.756 C 137.621 45.756,124.388 54.091,118.450 58.518 C 109.405 65.263,91.513 83.666,91.513 86.226 C 91.513 86.631,91.262 87.073,90.956 87.208 C 89.218 87.976,79.889 104.665,76.611 112.872 C 47.624 185.440,88.391 268.009,162.731 287.300 C 165.166 287.932,168.487 288.787,170.111 289.199 C 179.943 291.693,199.491 292.648,211.070 291.200 C 227.899 289.096,243.054 284.628,255.720 278.037 C 263.551 273.962,264.492 273.445,265.442 272.694 C 265.955 272.288,268.072 270.793,270.146 269.373 C 348.614 215.613,344.672 98.698,262.745 49.902 C 249.847 42.220,228.351 34.562,216.605 33.465 C 214.576 33.275,210.483 32.808,207.511 32.427 C 201.143 31.611,191.091 31.686,184.871 32.597 M218.819 35.759 C 240.268 39.662,263.619 50.301,277.860 62.658 C 283.476 67.531,296.593 81.208,298.831 84.525 C 300.067 86.356,301.422 88.263,301.841 88.761 C 318.038 108.016,327.697 147.672,323.634 178.229 C 321.413 194.925,318.447 204.668,311.017 219.677 C 269.347 303.849,150.135 314.571,94.923 239.112 C 92.697 236.069,90.192 232.701,89.357 231.628 C 85.013 226.042,74.955 203.121,73.049 194.465 C 72.692 192.841,71.867 189.188,71.216 186.347 C 67.277 169.154,69.290 140.472,75.801 121.033 C 87.456 86.233,116.766 55.092,149.081 43.174 C 161.764 38.497,168.631 36.617,177.122 35.498 C 180.572 35.043,184.225 34.529,185.240 34.355 C 188.995 33.712,213.110 34.720,218.819 35.759 M218.349 93.748 C 215.250 94.038,212.261 94.566,211.707 94.923 C 211.154 95.280,186.790 95.738,157.565 95.941 L 104.428 96.310 104.216 103.106 L 104.004 109.902 135.166 109.947 C 152.305 109.972,166.449 110.114,166.598 110.263 C 166.746 110.412,165.845 111.983,164.595 113.754 C 163.344 115.525,160.502 119.631,158.277 122.878 C 156.053 126.125,151.109 133.266,147.291 138.745 C 143.473 144.225,137.140 153.358,133.219 159.041 C 129.298 164.723,124.111 172.196,121.692 175.646 C 116.102 183.619,112.721 188.498,107.495 196.138 C 103.337 202.216,103.321 202.261,103.321 207.762 L 103.321 213.284 155.535 213.293 C 199.229 213.300,208.411 213.479,211.808 214.391 C 225.373 218.032,251.921 214.702,266.421 207.540 L 270.480 205.535 270.689 197.601 L 270.899 189.668 263.863 189.668 L 256.827 189.668 256.827 192.299 C 256.827 196.390,255.829 197.452,250.397 199.139 C 213.179 210.705,183.254 192.436,181.129 156.852 C 179.261 125.578,206.854 100.920,235.967 107.848 C 243.226 109.575,251.349 113.591,255.950 117.728 C 257.972 119.546,259.865 121.033,260.157 121.033 C 260.683 121.033,269.560 111.705,269.938 110.756 C 270.332 109.765,261.917 103.221,256.679 100.445 C 251.408 97.651,247.639 96.169,241.697 94.552 C 237.853 93.506,225.500 93.081,218.349 93.748 M170.036 134.133 C 163.256 154.480,167.437 178.855,180.481 195.018 L 184.500 200.000 153.092 200.000 C 128.180 200.000,121.792 199.809,122.206 199.077 C 122.492 198.570,123.461 197.159,124.358 195.941 C 125.256 194.723,129.453 188.745,133.685 182.657 C 140.654 172.632,152.519 155.736,166.205 136.347 C 168.999 132.389,171.377 129.151,171.490 129.151 C 171.603 129.151,170.949 131.393,170.036 134.133 M229.520 154.965 L 229.520 161.590 242.989 161.791 L 256.458 161.993 256.827 169.373 L 257.196 176.753 264.022 176.753 L 270.848 176.753 270.849 162.546 L 270.849 148.339 250.185 148.339 L 229.520 148.339 229.520 154.965 M214.422 180.124 C 214.690 180.558,215.382 180.731,215.959 180.510 C 217.151 180.052,216.105 182.564,214.756 183.397 C 213.183 184.369,214.150 185.239,216.790 185.229 C 218.760 185.221,219.248 185.022,218.485 184.539 C 217.896 184.166,217.085 184.064,216.684 184.312 C 216.283 184.560,216.709 183.542,217.631 182.049 L 219.309 179.336 216.622 179.336 C 214.904 179.336,214.111 179.620,214.422 180.124 M224.705 180.103 C 224.397 180.601,224.901 180.703,226.137 180.392 C 227.889 179.953,228.044 180.105,228.044 182.262 C 228.044 184.114,227.771 184.550,226.753 184.328 C 226.042 184.172,225.544 183.650,225.646 183.167 C 225.747 182.683,225.474 182.288,225.038 182.288 C 223.073 182.288,224.882 184.885,226.991 185.092 C 229.237 185.312,229.645 184.189,228.881 179.889 C 228.731 179.049,225.246 179.228,224.705 180.103 M235.535 182.472 C 235.622 184.939,235.714 185.144,235.967 183.430 C 236.144 182.231,236.842 180.830,237.517 180.317 C 238.623 179.476,238.580 179.380,237.085 179.359 C 235.603 179.338,235.436 179.673,235.535 182.472 M243.900 180.092 C 243.556 180.650,243.966 180.850,245.122 180.687 C 246.547 180.487,246.906 180.812,247.097 182.472 C 247.260 183.892,246.996 184.502,246.218 184.502 C 244.494 184.502,244.104 183.207,245.556 182.306 C 246.762 181.559,246.748 181.513,245.387 181.717 C 242.746 182.114,243.525 184.834,246.358 185.106 C 248.775 185.338,248.801 185.307,248.572 182.523 C 248.332 179.610,245.204 177.982,243.900 180.092 M262.485 179.828 C 260.824 181.489,262.661 185.240,265.136 185.240 C 265.890 185.240,266.302 185.573,266.050 185.981 C 265.798 186.388,264.782 186.518,263.792 186.270 C 262.710 185.998,261.993 186.138,261.993 186.622 C 261.993 187.867,265.556 188.478,266.799 187.446 C 269.256 185.407,268.236 179.336,265.437 179.336 C 264.084 179.336,262.755 179.557,262.485 179.828 M273.801 182.288 C 273.801 183.911,274.133 185.240,274.539 185.240 C 274.945 185.240,275.277 184.519,275.277 183.637 C 275.277 182.756,275.826 181.428,276.498 180.685 C 277.652 179.410,277.612 179.336,275.760 179.336 C 273.966 179.336,273.801 179.585,273.801 182.288 M282.665 180.433 C 281.232 182.159,282.346 185.240,284.402 185.240 C 286.974 185.240,288.894 182.813,287.856 180.873 C 286.893 179.075,283.996 178.830,282.665 180.433 M293.867 182.103 C 294.189 185.998,298.893 186.905,298.893 183.073 C 298.893 181.829,298.918 180.571,298.948 180.277 C 298.979 179.982,298.647 179.623,298.210 179.477 C 297.759 179.327,297.417 180.193,297.417 181.488 C 297.417 183.019,297.055 183.764,296.310 183.764 C 295.572 183.764,295.203 183.026,295.203 181.550 C 295.203 180.332,294.851 179.336,294.420 179.336 C 293.967 179.336,293.734 180.501,293.867 182.103 M304.797 183.395 C 304.797 185.627,305.129 187.454,305.535 187.454 C 305.941 187.454,306.273 186.956,306.273 186.347 C 306.273 185.662,306.967 185.240,308.092 185.240 C 310.307 185.240,311.493 183.263,310.638 180.996 C 310.150 179.706,309.429 179.336,307.404 179.336 L 304.797 179.336 304.797 183.395 M286.649 183.135 C 286.032 184.132,283.395 183.865,283.395 182.804 C 283.395 180.891,285.138 179.908,286.129 181.263 C 286.629 181.946,286.863 182.788,286.649 183.135 M266.738 181.466 C 267.293 182.365,265.192 184.004,264.239 183.415 C 262.932 182.607,263.389 180.812,264.901 180.812 C 265.689 180.812,266.516 181.106,266.738 181.466 M309.614 181.582 C 309.876 182.006,309.685 182.840,309.191 183.436 C 308.168 184.668,306.273 183.624,306.273 181.828 C 306.273 180.644,308.914 180.449,309.614 181.582 " stroke="none" fill="#000000" fill-rule="evenodd"></path></g></svg>